<?xml version="1.0" encoding="iso-8859-1"?>
<!-- Generator: Adobe Illustrator 19.0.0, SVG Export Plug-In . SVG Version: 6.00 Build 0)  -->
<svg version="1.1" id="Capa_1" xmlns="http://www.w3.org/2000/svg" xmlns:xlink="http://www.w3.org/1999/xlink" x="0px" y="0px"
	 viewBox="0 0 511.995 511.995" style="enable-background:new 0 0 511.995 511.995;" xml:space="preserve">
<g>
	<g>
		<path d="M487.772,199.438L108.407,77.997c-17.814-5.721-36.612,3.652-42.761,21.32l-41.82,119.73l16.146,5.636l41.82-119.739
			c3.079-8.834,12.461-13.555,21.389-10.656L482.7,215.772c9.04,2.711,14.171,12.272,11.409,21.492l-31.9,101.779l16.318,5.114
			l32.019-102.164C515.968,223.931,505.689,204.817,487.772,199.438z"/>
	</g>
</g>
<g>
	<g>
		
			<rect x="360.376" y="175.46" transform="matrix(0.3205 -0.9472 0.9472 0.3205 76.3657 474.4812)" width="17.069" height="17.103"/>
	</g>
</g>
<g>
	<g>
		
			<rect x="349.431" y="207.891" transform="matrix(0.3205 -0.9472 0.9472 0.3205 38.2086 486.1511)" width="17.069" height="17.103"/>
	</g>
</g>
<g>
	<g>
		<rect x="196.712" y="21.012" transform="matrix(0.3124 -0.95 0.95 0.3124 -24.2109 314.6811)" width="17.105" height="306.104"/>
	</g>
</g>
<g>
	<g>
		
			<rect x="121.072" y="146.167" transform="matrix(0.3189 -0.9478 0.9478 0.3189 -86.724 248.6234)" width="17.104" height="76.97"/>
	</g>
</g>
<g>
	<g>
		<rect x="210.416" y="193.201" transform="matrix(0.3239 -0.9461 0.9461 0.3239 -55.2243 352.425)" width="17.104" height="43.3"/>
	</g>
</g>
<g>
	<g>
		
			<rect x="474.632" y="255.37" transform="matrix(0.3162 -0.9487 0.9487 0.3162 75.3038 642.2579)" width="17.096" height="27.042"/>
	</g>
</g>
<g>
	<g>
		<path d="M436.16,213.318H42.761C19.182,213.318,0,232.5,0,256.079v136.834c0,23.578,19.182,42.761,42.761,42.761H436.16
			c23.578,0,42.761-19.182,42.761-42.761V256.079C478.92,232.5,459.738,213.318,436.16,213.318z M461.816,392.913
			c0,14.145-11.511,25.656-25.656,25.656H42.761c-14.145,0-25.656-11.511-25.656-25.656V256.079
			c0-14.145,11.511-25.656,25.656-25.656H436.16c14.145,0,25.656,11.511,25.656,25.656V392.913z"/>
	</g>
</g>
<g>
	<g>
		<rect x="307.877" y="230.422" width="17.104" height="17.104"/>
	</g>
</g>
<g>
	<g>
		<rect x="307.877" y="264.631" width="17.104" height="17.104"/>
	</g>
</g>
<g>
	<g>
		<rect x="307.877" y="298.839" width="17.104" height="17.104"/>
	</g>
</g>
<g>
	<g>
		<rect x="307.877" y="333.048" width="17.104" height="17.104"/>
	</g>
</g>
<g>
	<g>
		<rect x="307.877" y="367.257" width="17.104" height="17.104"/>
	</g>
</g>
<g>
	<g>
		<rect x="307.877" y="401.465" width="17.104" height="17.104"/>
	</g>
</g>
<g>
	<g>
		<rect x="8.552" y="273.183" width="461.816" height="17.104"/>
	</g>
</g>
<g>
	<g>
		<polygon points="59.865,341.6 59.865,333.048 42.761,333.048 42.761,358.704 136.834,358.704 136.834,341.6 		"/>
	</g>
</g>
<g>
	<g>
		<rect x="410.503" y="307.391" width="34.209" height="17.104"/>
	</g>
</g>
<g>
	<g>
		<rect x="410.503" y="341.6" width="34.209" height="17.104"/>
	</g>
</g>
<g>
	<g>
		<rect x="410.503" y="375.809" width="34.209" height="17.104"/>
	</g>
</g>
<g>
	<g>
		<rect x="342.086" y="307.391" width="51.313" height="17.104"/>
	</g>
</g>
<g>
	<g>
		<rect x="342.086" y="341.6" width="34.209" height="17.104"/>
	</g>
</g>
<g>
	<g>
		<rect x="342.086" y="375.809" width="51.313" height="17.104"/>
	</g>
</g>
<g>
	<g>
		<rect x="162.491" y="307.391" width="111.178" height="17.104"/>
	</g>
</g>
<g>
	<g>
		<rect x="162.491" y="341.6" width="111.178" height="17.104"/>
	</g>
</g>
<g>
	<g>
		<rect x="162.491" y="375.809" width="76.969" height="17.104"/>
	</g>
</g>
<g>
	<g>
		<polygon points="83.811,310.821 70.128,321.075 91.936,350.152 70.128,379.238 83.811,389.492 113.316,350.152 		"/>
	</g>
</g>
<g>
</g>
<g>
</g>
<g>
</g>
<g>
</g>
<g>
</g>
<g>
</g>
<g>
</g>
<g>
</g>
<g>
</g>
<g>
</g>
<g>
</g>
<g>
</g>
<g>
</g>
<g>
</g>
<g>
</g>
</svg>
