<?xml version="1.0" encoding="iso-8859-1"?>
<!-- Generator: Adobe Illustrator 19.0.0, SVG Export Plug-In . SVG Version: 6.00 Build 0)  -->
<svg version="1.1" id="Capa_1" xmlns="http://www.w3.org/2000/svg" xmlns:xlink="http://www.w3.org/1999/xlink" x="0px" y="0px"
	 viewBox="0 0 512 512" style="enable-background:new 0 0 512 512;" xml:space="preserve">
<g>
	<g>
		<path d="M494.191,284.006l-63.326-72.371c-27.46-31.36-67.106-49.408-108.817-49.502H8.533c-4.71,0-8.533,3.823-8.533,8.533
			v221.867c0,4.719,3.823,8.533,8.533,8.533h432.896c0.008,0,0.179,0,0.179,0c18.833-0.026,36.531-7.381,49.818-20.719
			c13.286-13.338,20.599-31.044,20.574-49.911C511.872,313.276,505.532,296.764,494.191,284.006z M479.343,368.299
			C469.265,378.402,455.859,383.983,441.6,384H17.067V179.2h304.964c36.779,0.085,71.765,16.009,95.991,43.674l63.369,72.414
			c8.644,9.728,13.449,22.246,13.542,35.217C494.95,344.772,489.421,358.195,479.343,368.299z"/>
	</g>
</g>
<g>
	<g>
		<path d="M353.212,281.6c-5.709-0.017-11-2.867-14.165-7.646l-31.249-46.771c-0.375-0.563-0.572-1.212-0.572-1.903
			c0-1.22,0.614-2.031,0.99-2.406c0.375-0.375,1.178-1.007,2.398-1.007h107.52V204.8H310.605c-5.461,0.008-10.607,2.15-14.473,6.025
			c-3.857,3.874-5.982,9.02-5.965,14.472c0,4.07,1.195,8.004,3.456,11.375l31.224,46.746c6.315,9.515,16.904,15.215,28.348,15.249
			H486.4V281.6H353.212z"/>
	</g>
</g>
<g>
	<g>
		<path d="M443.733,315.733c-14.114,0-25.6,11.486-25.6,25.6s11.486,25.6,25.6,25.6s25.6-11.486,25.6-25.6
			S457.847,315.733,443.733,315.733z M443.733,349.867c-4.71,0-8.533-3.823-8.533-8.533s3.823-8.533,8.533-8.533
			s8.533,3.823,8.533,8.533S448.444,349.867,443.733,349.867z"/>
	</g>
</g>
<g>
	<g>
		<path d="M349.867,315.733c-14.114,0-25.6,11.486-25.6,25.6s11.486,25.6,25.6,25.6s25.6-11.486,25.6-25.6
			S363.981,315.733,349.867,315.733z M349.867,349.867c-4.71,0-8.533-3.823-8.533-8.533s3.823-8.533,8.533-8.533
			s8.533,3.823,8.533,8.533S354.577,349.867,349.867,349.867z"/>
	</g>
</g>
<g>
	<g>
		<path d="M167.253,204.8h-27.307c-11.29,0-20.48,9.19-20.48,20.48v52.907c0,11.29,9.19,20.48,20.48,20.48h27.307
			c11.29,0,20.48-9.19,20.48-20.48V225.28C187.733,213.99,178.543,204.8,167.253,204.8z M170.667,278.187
			c0,1.877-1.527,3.413-3.413,3.413h-27.307c-1.886,0-3.413-1.527-3.413-3.413V225.28c0-1.886,1.527-3.413,3.413-3.413v0h27.307
			c1.886,0,3.413,1.527,3.413,3.413V278.187z"/>
	</g>
</g>
<g>
	<g>
		<path d="M81.92,204.8H54.613c-11.29,0-20.48,9.19-20.48,20.48v52.907c0,11.29,9.19,20.48,20.48,20.48H81.92
			c11.29,0,20.48-9.19,20.48-20.48V225.28C102.4,213.99,93.21,204.8,81.92,204.8z M85.333,278.187c0,1.877-1.527,3.413-3.413,3.413
			H54.613c-1.886,0-3.413-1.536-3.413-3.413V225.28c0-1.886,1.527-3.413,3.413-3.413v0H81.92c1.886,0,3.413,1.527,3.413,3.413
			V278.187z"/>
	</g>
</g>
<g>
	<g>
		<rect x="8.533" y="315.733" width="290.133" height="17.067"/>
	</g>
</g>
<g>
	<g>
		<rect x="8.533" y="349.867" width="290.133" height="17.067"/>
	</g>
</g>
<g>
	<g>
		<path d="M252.587,204.8H225.28c-11.29,0-20.48,9.19-20.48,20.48v52.907c0,11.29,9.19,20.48,20.48,20.48h27.307
			c11.29,0,20.48-9.19,20.48-20.48V225.28C273.067,213.99,263.876,204.8,252.587,204.8z M256,278.187
			c0,1.877-1.527,3.413-3.413,3.413H225.28c-1.886,0-3.413-1.527-3.413-3.413V225.28c0-1.886,1.527-3.413,3.413-3.413v0h27.307
			c1.886,0,3.413,1.527,3.413,3.413V278.187z"/>
	</g>
</g>
<g>
	<g>
		<path d="M42.667,384C19.14,384,0,403.14,0,426.667s19.14,42.667,42.667,42.667c23.526,0,42.667-19.14,42.667-42.667
			S66.193,384,42.667,384z M42.667,452.267c-14.114,0-25.6-11.486-25.6-25.6s11.486-25.6,25.6-25.6s25.6,11.486,25.6,25.6
			S56.781,452.267,42.667,452.267z"/>
	</g>
</g>
<g>
	<g>
		<path d="M145.067,384c-23.526,0-42.667,19.14-42.667,42.667s19.14,42.667,42.667,42.667c23.526,0,42.667-19.14,42.667-42.667
			S168.593,384,145.067,384z M145.067,452.267c-14.114,0-25.6-11.486-25.6-25.6s11.486-25.6,25.6-25.6s25.6,11.486,25.6,25.6
			S159.181,452.267,145.067,452.267z"/>
	</g>
</g>
<g>
	<g>
		<rect x="42.667" y="418.133" width="102.4" height="17.067"/>
	</g>
</g>
<g>
	<g>
		<path d="M324.267,384c-23.526,0-42.667,19.14-42.667,42.667s19.14,42.667,42.667,42.667c23.526,0,42.667-19.14,42.667-42.667
			S347.793,384,324.267,384z M324.267,452.267c-14.114,0-25.6-11.486-25.6-25.6s11.486-25.6,25.6-25.6s25.6,11.486,25.6,25.6
			S338.381,452.267,324.267,452.267z"/>
	</g>
</g>
<g>
	<g>
		<path d="M426.667,384C403.14,384,384,403.14,384,426.667s19.14,42.667,42.667,42.667s42.667-19.14,42.667-42.667
			S450.193,384,426.667,384z M426.667,452.267c-14.114,0-25.6-11.486-25.6-25.6s11.486-25.6,25.6-25.6s25.6,11.486,25.6,25.6
			S440.781,452.267,426.667,452.267z"/>
	</g>
</g>
<g>
	<g>
		<rect x="324.267" y="418.133" width="102.4" height="17.067"/>
	</g>
</g>
<g>
	<g>
		<rect y="452.267" width="512" height="17.067"/>
	</g>
</g>
<g>
	<g>
		<path d="M324.267,128H187.733c-4.71,0-8.533,3.823-8.533,8.533v34.133c0,4.71,3.823,8.533,8.533,8.533h136.533
			c4.719,0,8.533-3.823,8.533-8.533v-34.133C332.8,131.823,328.986,128,324.267,128z M315.733,162.133H196.267v-17.067h119.467
			V162.133z"/>
	</g>
</g>
<g>
	<g>
		<rect y="42.667" width="512" height="17.067"/>
	</g>
</g>
<g>
	<g>
		<path d="M252.425,58.146l-9.916-13.892l-59.733,42.667c-2.244,1.604-3.575,4.19-3.575,6.946c0,2.756,1.331,5.342,3.575,6.946
			l59.733,42.667l9.916-13.892l-50.005-35.721L252.425,58.146z"/>
	</g>
</g>
<g>
	<g>
		<path d="M329.225,86.921l-59.733-42.667l-9.916,13.892l50.005,35.721l-50.005,35.721l9.916,13.892l59.733-42.667
			c2.244-1.604,3.575-4.19,3.575-6.946C332.8,91.11,331.469,88.525,329.225,86.921z"/>
	</g>
</g>
<g>
	<g>
		<rect y="486.4" width="512" height="17.067"/>
	</g>
</g>
<g>
	<g>
		<rect y="8.533" width="512" height="17.067"/>
	</g>
</g>
<g>
</g>
<g>
</g>
<g>
</g>
<g>
</g>
<g>
</g>
<g>
</g>
<g>
</g>
<g>
</g>
<g>
</g>
<g>
</g>
<g>
</g>
<g>
</g>
<g>
</g>
<g>
</g>
<g>
</g>
</svg>
