<?xml version="1.0" encoding="iso-8859-1"?>
<!-- Generator: Adobe Illustrator 19.0.0, SVG Export Plug-In . SVG Version: 6.00 Build 0)  -->
<svg version="1.1" id="Capa_1" xmlns="http://www.w3.org/2000/svg" xmlns:xlink="http://www.w3.org/1999/xlink" x="0px" y="0px"
	 viewBox="0 0 512 512" style="enable-background:new 0 0 512 512;" xml:space="preserve">
<g>
	<g>
		<path d="M187.733,51.2H93.866c-4.71,0-8.533,3.823-8.533,8.533v76.8c0,4.71,3.823,8.533,8.533,8.533h93.867
			c4.71,0,8.533-3.823,8.533-8.533v-76.8C196.266,55.023,192.443,51.2,187.733,51.2z M179.199,128h-76.8V68.267h76.8V128z"/>
	</g>
</g>
<g>
	<g>
		<path d="M211.72,3.55C210.116,1.314,207.539,0,204.799,0h-128c-2.739,0-5.316,1.314-6.921,3.541
			c-1.604,2.227-2.048,5.086-1.178,7.689l17.067,51.2c1.161,3.49,4.42,5.837,8.098,5.837h93.867c3.669,0,6.929-2.347,8.098-5.828
			l17.067-51.2C213.759,8.636,213.324,5.777,211.72,3.55z M181.589,51.2h-81.57L88.635,17.067h104.329L181.589,51.2z"/>
	</g>
</g>
<g>
	<g>
		<path d="M196.095,450.594l-25.6-128c-0.794-3.985-4.292-6.861-8.363-6.861H42.666c-4.07,0-7.569,2.876-8.363,6.861l-25.6,128
			c-0.119,0.546-0.171,1.118-0.171,1.672v51.2c0,4.719,3.823,8.533,8.533,8.533h170.667c4.71,0,8.533-3.814,8.533-8.533v-51.2
			C196.266,451.712,196.206,451.14,196.095,450.594z M179.199,494.933h-153.6v-41.822L49.663,332.8h105.472l24.064,120.312V494.933z
			"/>
	</g>
</g>
<g>
	<g>
		<rect x="8.533" y="443.733" width="170.667" height="17.067"/>
	</g>
</g>
<g>
	<g>
		<path d="M255.999,204.8c4.719,0,8.533-3.823,8.533-8.533v-59.733c0-4.71-3.814-8.533-8.533-8.533H42.666
			c-4.267,0-7.885,3.157-8.448,7.381l-25.6,187.733c-0.333,2.441,0.401,4.907,2.022,6.758c1.621,1.86,3.959,2.927,6.426,2.927
			h238.933c4.719,0,8.533-3.814,8.533-8.533v-59.733c0-4.719-3.814-8.533-8.533-8.533h-93.867v-51.2H255.999z M153.599,273.067
			h93.867v42.667H26.837l23.279-170.667h197.35v42.667h-93.867c-4.71,0-8.533,3.823-8.533,8.533v68.267
			C145.066,269.252,148.889,273.067,153.599,273.067z"/>
	</g>
</g>
<g>
	<g>
		<path d="M315.733,187.733h-128c-4.71,0-8.533,3.823-8.533,8.533v68.267c0,4.719,3.823,8.533,8.533,8.533h128
			c4.719,0,8.533-3.814,8.533-8.533v-68.267C324.266,191.556,320.452,187.733,315.733,187.733z M307.199,256H196.266v-51.2h110.933
			V256z"/>
	</g>
</g>
<g>
	<g>
		<rect x="247.466" y="221.867" width="17.067" height="17.067"/>
	</g>
</g>
<g>
	<g>
		<rect x="213.333" y="221.867" width="17.067" height="17.067"/>
	</g>
</g>
<g>
	<g>
		<rect x="281.599" y="221.867" width="17.067" height="17.067"/>
	</g>
</g>
<g>
	<g>
		<path d="M503.295,450.594l-25.6-128c-0.794-3.985-4.292-6.861-8.363-6.861H349.866c-4.07,0-7.569,2.876-8.363,6.861l-25.6,128
			c-0.111,0.546-0.171,1.118-0.171,1.672v51.2c0,4.719,3.814,8.533,8.533,8.533h170.667c4.719,0,8.533-3.814,8.533-8.533v-51.2
			C503.466,451.712,503.406,451.14,503.295,450.594z M486.399,494.933h-153.6v-41.822L356.855,332.8h105.481l24.064,120.312V494.933
			z"/>
	</g>
</g>
<g>
	<g>
		<rect x="332.799" y="443.733" width="170.667" height="17.067"/>
	</g>
</g>
<g>
	<g>
		<path d="M503.389,323.115l-25.6-187.733c-0.58-4.224-4.19-7.381-8.457-7.381H255.999c-4.71,0-8.533,3.823-8.533,8.533v59.733
			c0,4.71,3.823,8.533,8.533,8.533h85.333V256h-85.333c-4.71,0-8.533,3.814-8.533,8.533v59.733c0,4.719,3.823,8.533,8.533,8.533
			h238.933c2.466,0,4.804-1.067,6.426-2.927C502.98,328.021,503.722,325.555,503.389,323.115z M264.533,315.733v-42.667h85.333
			c4.719,0,8.533-3.814,8.533-8.533v-68.267c0-4.71-3.814-8.533-8.533-8.533h-85.333v-42.667h197.342l23.279,170.667H264.533z"/>
	</g>
</g>
<g>
	<g>
		<path d="M290.133,315.733h-68.267c-4.71,0-8.533,3.814-8.533,8.533V358.4c0,4.719,3.823,8.533,8.533,8.533h68.267
			c4.719,0,8.533-3.814,8.533-8.533v-34.133C298.666,319.548,294.852,315.733,290.133,315.733z M281.599,349.867h-51.2V332.8h51.2
			V349.867z"/>
	</g>
</g>
<g>
	<g>
		<path d="M290.133,93.867h-68.267c-4.71,0-8.533,3.823-8.533,8.533v34.133c0,4.71,3.823,8.533,8.533,8.533h68.267
			c4.719,0,8.533-3.823,8.533-8.533V102.4C298.666,97.69,294.852,93.867,290.133,93.867z M281.599,128h-51.2v-17.067h51.2V128z"/>
	</g>
</g>
<g>
	<g>
		<path d="M418.133,51.2h-93.867c-4.719,0-8.533,3.823-8.533,8.533v76.8c0,4.71,3.814,8.533,8.533,8.533h93.867
			c4.719,0,8.533-3.823,8.533-8.533v-76.8C426.666,55.023,422.852,51.2,418.133,51.2z M409.599,128h-76.8V68.267h76.8V128z"/>
	</g>
</g>
<g>
	<g>
		<path d="M442.128,3.55c-1.613-2.236-4.19-3.55-6.929-3.55h-128c-2.739,0-5.316,1.314-6.921,3.541
			c-1.604,2.227-2.048,5.086-1.169,7.689l17.067,51.2c1.152,3.49,4.412,5.837,8.09,5.837h93.867c3.669,0,6.929-2.347,8.098-5.828
			l17.067-51.2C444.168,8.636,443.733,5.777,442.128,3.55z M411.989,51.2h-81.57l-11.375-34.133h104.32L411.989,51.2z"/>
	</g>
</g>
<g>
	<g>
		<rect x="34.133" y="187.733" width="59.733" height="17.067"/>
	</g>
</g>
<g>
	<g>
		<rect x="25.599" y="256" width="68.267" height="17.067"/>
	</g>
</g>
<g>
	<g>
		<rect x="34.133" y="221.867" width="59.733" height="17.067"/>
	</g>
</g>
<g>
	<g>
		<rect x="418.133" y="187.733" width="59.733" height="17.067"/>
	</g>
</g>
<g>
	<g>
		<rect x="418.133" y="256" width="68.267" height="17.067"/>
	</g>
</g>
<g>
	<g>
		<rect x="418.133" y="221.867" width="59.733" height="17.067"/>
	</g>
</g>
<g>
</g>
<g>
</g>
<g>
</g>
<g>
</g>
<g>
</g>
<g>
</g>
<g>
</g>
<g>
</g>
<g>
</g>
<g>
</g>
<g>
</g>
<g>
</g>
<g>
</g>
<g>
</g>
<g>
</g>
</svg>
