<?xml version="1.0" encoding="iso-8859-1"?>
<!-- Generator: Adobe Illustrator 19.0.0, SVG Export Plug-In . SVG Version: 6.00 Build 0)  -->
<svg version="1.1" id="Capa_1" xmlns="http://www.w3.org/2000/svg" xmlns:xlink="http://www.w3.org/1999/xlink" x="0px" y="0px"
	 viewBox="0 0 512 512" style="enable-background:new 0 0 512 512;" xml:space="preserve">
<g>
	<g>
		<path d="M451.254,117.153H8.678c-4.79,0-8.678,3.888-8.678,8.678v312.407c0,4.799,3.888,8.678,8.678,8.678h442.576
			c4.799,0,8.678-3.879,8.678-8.678V125.831C459.932,121.04,456.053,117.153,451.254,117.153z M442.576,429.559H17.356V134.508
			h425.22V429.559z"/>
	</g>
</g>
<g>
	<g>
		<rect x="208.271" y="169.22" width="17.356" height="225.627"/>
	</g>
</g>
<g>
	<g>
		<path d="M399.186,169.22h-86.78c-4.799,0-8.678,3.888-8.678,8.678v104.136c0,4.799,3.879,8.678,8.678,8.678h86.78
			c4.799,0,8.678-3.879,8.678-8.678V177.898C407.864,173.108,403.985,169.22,399.186,169.22z M390.508,273.356h-69.424v-86.78
			h69.424V273.356z"/>
	</g>
</g>
<g>
	<g>
		<rect x="260.339" y="316.746" width="147.525" height="17.356"/>
	</g>
</g>
<g>
	<g>
		<rect x="260.339" y="360.136" width="147.525" height="17.356"/>
	</g>
</g>
<g>
	<g>
		<path d="M503.322,65.085H60.746c-4.79,0-8.678,3.888-8.678,8.678v52.068h17.356v-43.39h425.22v295.051h-43.39v17.356h52.068
			c4.799,0,8.678-3.879,8.678-8.678V73.763C512,68.972,508.121,65.085,503.322,65.085z"/>
	</g>
</g>
<g>
	<g>
		<rect x="52.068" y="203.932" width="34.712" height="17.356"/>
	</g>
</g>
<g>
	<g>
		<rect x="104.136" y="203.932" width="69.424" height="17.356"/>
	</g>
</g>
<g>
	<g>
		<rect x="52.068" y="247.322" width="69.424" height="17.356"/>
	</g>
</g>
<g>
	<g>
		<rect x="138.847" y="247.322" width="34.712" height="17.356"/>
	</g>
</g>
<g>
	<g>
		<rect x="52.068" y="290.712" width="121.492" height="17.356"/>
	</g>
</g>
<g>
	<g>
		<rect x="52.068" y="334.102" width="69.424" height="17.356"/>
	</g>
</g>
<g>
	<g>
		<rect x="138.847" y="334.102" width="34.712" height="17.356"/>
	</g>
</g>
<g>
	<g>
		<path d="M370.601,203.203c-3.393-3.402-8.886-3.393-12.279-0.009c-1.831,1.831-4.27,2.838-6.864,2.838c0,0,0,0-0.009,0
			c-2.595,0-5.033-1.015-6.89-2.872c-5.111-5.111-11.906-7.923-19.135-7.923c-0.009,0-0.009,0-0.017,0
			c-7.237,0.009-14.032,2.829-19.152,7.958c-1.831,1.831-4.27,2.838-6.864,2.838c0,0,0,0-0.009,0c-2.595,0-5.033-1.015-6.89-2.872
			c-5.111-5.111-11.906-7.923-19.135-7.923c-0.009,0-0.009,0-0.017,0c-7.237,0.009-14.041,2.829-19.144,7.949l12.288,12.262
			c1.831-1.84,4.27-2.855,6.864-2.855c0.009,0,0.009,0,0.009,0c2.595,0,5.033,1.015,6.873,2.855c5.111,5.12,11.906,7.94,19.144,7.94
			c0.009,0,0.009,0,0.017,0c7.229,0,14.024-2.812,19.161-7.94c1.831-1.84,4.27-2.855,6.864-2.855c0.009,0,0.009,0,0.009,0
			c2.595,0,5.033,1.015,6.873,2.855c5.111,5.12,11.906,7.94,19.144,7.94c0.009,0,0.009,0,0.017,0c7.229,0,14.024-2.812,19.135-7.914
			C373.986,212.089,373.986,206.596,370.601,203.203z"/>
	</g>
</g>
<g>
	<g>
		<path d="M370.601,237.906c-3.393-3.402-8.886-3.393-12.279-0.009c-1.831,1.831-4.27,2.838-6.864,2.838c0,0,0,0-0.009,0
			c-2.595,0-5.033-1.015-6.89-2.872c-5.111-5.111-11.906-7.923-19.135-7.923c-0.009,0-0.009,0-0.017,0
			c-7.237,0.009-14.032,2.829-19.152,7.958c-1.831,1.831-4.27,2.838-6.864,2.838c0,0,0,0-0.009,0c-2.595,0-5.033-1.015-6.89-2.872
			c-5.111-5.111-11.906-7.923-19.135-7.923c-0.009,0-0.009,0-0.017,0c-7.237,0.009-14.041,2.829-19.144,7.949l12.288,12.262
			c1.831-1.84,4.27-2.855,6.864-2.855c0.009,0,0.009,0,0.009,0c2.595,0,5.033,1.015,6.873,2.855
			c5.111,5.12,11.906,7.94,19.144,7.949c0.009,0,0.009,0,0.017,0c7.229,0,14.024-2.82,19.161-7.949
			c1.831-1.84,4.27-2.855,6.864-2.855c0.009,0,0.009,0,0.009,0c2.595,0,5.033,1.015,6.873,2.855
			c5.111,5.12,11.906,7.94,19.144,7.949c0.009,0,0.009,0,0.017,0c7.229,0,14.024-2.812,19.135-7.923
			C373.986,246.793,373.986,241.299,370.601,237.906z"/>
	</g>
</g>
<g>
</g>
<g>
</g>
<g>
</g>
<g>
</g>
<g>
</g>
<g>
</g>
<g>
</g>
<g>
</g>
<g>
</g>
<g>
</g>
<g>
</g>
<g>
</g>
<g>
</g>
<g>
</g>
<g>
</g>
</svg>
