<?xml version="1.0" encoding="iso-8859-1"?>
<!-- Generator: Adobe Illustrator 19.0.0, SVG Export Plug-In . SVG Version: 6.00 Build 0)  -->
<svg version="1.1" id="Capa_1" xmlns="http://www.w3.org/2000/svg" xmlns:xlink="http://www.w3.org/1999/xlink" x="0px" y="0px"
	 viewBox="0 0 512 512" style="enable-background:new 0 0 512 512;" xml:space="preserve">
<g>
	<g>
		<path d="M435.525,437.427l-50.432-196.267c-6.784-26.419-30.566-44.885-57.839-44.894H184.739
			c-27.281,0.009-51.063,18.475-57.839,44.894L76.468,437.427v0.009c-1.237,4.847-1.869,9.83-1.869,14.814
			c-0.009,15.949,6.204,30.959,17.476,42.24c11.281,11.29,26.283,17.502,42.24,17.51h243.362c4.975,0,9.958-0.623,14.814-1.86
			C424.389,501.956,443.7,469.342,435.525,437.427z M388.267,493.602c-3.473,0.879-7.04,1.331-10.59,1.331H134.315
			c-11.401,0-22.11-4.446-30.174-12.51c-8.055-8.055-12.484-18.773-12.484-30.174c0-3.558,0.452-7.117,1.34-10.581l50.432-196.267
			c4.838-18.876,21.828-32.06,41.31-32.068h142.515c19.473,0.009,36.471,13.201,41.31,32.077l50.432,196.258
			C424.833,464.461,411.043,487.757,388.267,493.602z"/>
	</g>
</g>
<g>
	<g>
		<path d="M281.601,324.122c16.973-12.877,22.033-36.77,10.991-55.578c-2.825-4.804-6.562-9.02-10.991-12.382v-17.229
			c0-4.71-3.814-8.533-8.533-8.533h-34.133c-4.71,0-8.533,3.823-8.533,8.533v17.212c-16.964,12.877-22.025,36.762-10.991,55.578
			c2.816,4.804,6.571,9.02,10.991,12.382v3.319c-5.077,5.717-8.047,12.937-8.482,20.685c-0.512,9.105,2.56,17.86,8.636,24.653
			c6.084,6.793,14.438,10.812,23.543,11.324c0.649,0.034,1.297,0.051,1.946,0.051c8.397,0,16.393-3.046,22.716-8.687
			c6.793-6.076,10.812-14.438,11.324-23.543c0.503-9.02-2.509-17.707-8.482-24.482V324.122z M280.577,296.576
			c-1.724,6.613-5.922,12.169-11.819,15.633c-2.611,1.527-4.215,4.335-4.215,7.356v11.349c0,2.423,1.033,4.745,2.842,6.357
			c0.469,0.427,0.922,0.862,1.34,1.34c3.038,3.396,4.574,7.774,4.318,12.322s-2.27,8.738-5.666,11.776
			c-3.405,3.038-7.731,4.523-12.331,4.318c-4.548-0.247-8.73-2.27-11.768-5.666c-3.038-3.388-4.574-7.765-4.318-12.314
			c0.256-4.557,2.261-8.738,5.658-11.776c1.809-1.613,2.842-3.934,2.842-6.357v-11.349c0-3.021-1.604-5.82-4.215-7.356
			c-3.763-2.202-6.921-5.367-9.131-9.122c-7.142-12.169-3.046-27.887,9.131-35.038c2.611-1.527,4.215-4.335,4.215-7.356v-13.227
			h17.084v13.227c0,3.021,1.604,5.82,4.215,7.356c3.763,2.202,6.921,5.367,9.131,9.122
			C281.345,283.068,282.301,289.963,280.577,296.576z"/>
	</g>
</g>
<g>
	<g>
		<path d="M204.792,366.933h-34.133c-4.71,0-8.533,3.814-8.533,8.533v17.067h-34.133c-4.71,0-8.533,3.814-8.533,8.533V435.2
			c0,4.719,3.823,8.533,8.533,8.533h34.133V460.8c0,4.719,3.823,8.533,8.533,8.533h34.133c4.719,0,8.533-3.814,8.533-8.533v-85.333
			C213.326,370.748,209.503,366.933,204.792,366.933z M196.259,452.267h-17.067V435.2c0-4.719-3.823-8.533-8.533-8.533h-34.133
			V409.6h34.133c4.71,0,8.533-3.814,8.533-8.533V384h17.067V452.267z"/>
	</g>
</g>
<g>
	<g>
		<path d="M383.992,392.533h-34.133v-17.067c0-4.719-3.814-8.533-8.533-8.533h-34.133c-4.719,0-8.533,3.814-8.533,8.533V460.8
			c0,4.719,3.814,8.533,8.533,8.533h34.133c4.719,0,8.533-3.814,8.533-8.533v-17.067h34.133c4.719,0,8.533-3.814,8.533-8.533
			v-34.133C392.526,396.348,388.711,392.533,383.992,392.533z M375.459,426.667h-34.133c-4.719,0-8.533,3.814-8.533,8.533v17.067
			h-17.067V384h17.067v17.067c0,4.719,3.814,8.533,8.533,8.533h34.133V426.667z"/>
	</g>
</g>
<g>
	<g>
		<path d="M375.459,162.133H136.526c-32.939,0-59.733,26.795-59.733,59.733V435.2h17.067V221.867
			c0-23.526,19.14-42.667,42.667-42.667h238.933c23.526,0,42.667,19.14,42.667,42.667V435.2h17.067V221.867
			C435.192,188.928,408.389,162.133,375.459,162.133z"/>
	</g>
</g>
<g>
	<g>
		<path d="M375.459,68.267H136.526c-32.939,0-59.733,26.795-59.733,59.733v128h17.067V128c0-23.526,19.14-42.667,42.667-42.667
			h238.933c23.526,0,42.667,19.14,42.667,42.667v128h17.067V128C435.192,95.061,408.389,68.267,375.459,68.267z"/>
	</g>
</g>
<g>
	<g>
		<path d="M273.059,0h-34.133c-4.71,0-8.533,3.823-8.533,8.533V76.8c0,4.71,3.823,8.533,8.533,8.533h34.133
			c4.719,0,8.533-3.823,8.533-8.533V8.533C281.592,3.823,277.778,0,273.059,0z M264.526,68.267h-17.067v-51.2h17.067V68.267z"/>
	</g>
</g>
<g>
	<g>
		<path d="M179.192,0h-42.667c-4.71,0-8.533,3.823-8.533,8.533V76.8c0,4.71,3.823,8.533,8.533,8.533h42.667
			c4.719,0,8.533-3.823,8.533-8.533V8.533C187.726,3.823,183.903,0,179.192,0z M170.659,68.267h-25.6v-51.2h25.6V68.267z"/>
	</g>
</g>
<g>
	<g>
		<path d="M375.459,0h-42.667c-4.719,0-8.533,3.823-8.533,8.533V76.8c0,4.71,3.814,8.533,8.533,8.533h42.667
			c4.719,0,8.533-3.823,8.533-8.533V8.533C383.992,3.823,380.178,0,375.459,0z M366.926,68.267h-25.6v-51.2h25.6V68.267z"/>
	</g>
</g>
<g>
	<g>
		<circle cx="255.992" cy="418.133" r="17.067"/>
	</g>
</g>
<g>
	<g>
		<circle cx="255.992" cy="460.8" r="17.067"/>
	</g>
</g>
<g>
</g>
<g>
</g>
<g>
</g>
<g>
</g>
<g>
</g>
<g>
</g>
<g>
</g>
<g>
</g>
<g>
</g>
<g>
</g>
<g>
</g>
<g>
</g>
<g>
</g>
<g>
</g>
<g>
</g>
</svg>
