<?xml version="1.0" encoding="iso-8859-1"?>
<!-- Generator: Adobe Illustrator 19.0.0, SVG Export Plug-In . SVG Version: 6.00 Build 0)  -->
<svg version="1.1" id="Capa_1" xmlns="http://www.w3.org/2000/svg" xmlns:xlink="http://www.w3.org/1999/xlink" x="0px" y="0px"
	 viewBox="0 0 512 512" style="enable-background:new 0 0 512 512;" xml:space="preserve">
<g>
	<g>
		<path d="M366.933,0H42.667c-4.71,0-8.533,3.823-8.533,8.533v494.933c0,4.719,3.823,8.533,8.533,8.533h324.267
			c23.526,0,42.667-19.14,42.667-42.667V42.667C409.6,19.14,390.46,0,366.933,0z M392.533,469.333c0,14.114-11.486,25.6-25.6,25.6
			H51.2V17.067h315.733c14.114,0,25.6,11.486,25.6,25.6V469.333z"/>
	</g>
</g>
<g>
	<g>
		<path d="M435.2,0H384v17.067h51.2c14.114,0,25.6,11.486,25.6,25.6v426.667c0,14.114-11.486,25.6-25.6,25.6H384V512h51.2
			c23.526,0,42.667-19.14,42.667-42.667V42.667C477.867,19.14,458.726,0,435.2,0z"/>
	</g>
</g>
<g>
	<g>
		<path d="M401.067,0h-51.2v17.067h51.2c14.114,0,25.6,11.486,25.6,25.6v426.667c0,14.114-11.486,25.6-25.6,25.6h-51.2V512h51.2
			c23.526,0,42.667-19.14,42.667-42.667V42.667C443.733,19.14,424.593,0,401.067,0z"/>
	</g>
</g>
<g>
	<g>
		<path d="M264.533,375.467H179.2c-4.71,0-8.533,3.814-8.533,8.533v68.267c0,4.719,3.823,8.533,8.533,8.533h85.333
			c4.719,0,8.533-3.814,8.533-8.533V384C273.067,379.281,269.252,375.467,264.533,375.467z M256,443.733h-68.267v-51.2H256V443.733z
			"/>
	</g>
</g>
<g>
	<g>
		<rect x="179.2" y="409.6" width="25.6" height="17.067"/>
	</g>
</g>
<g>
	<g>
		<rect x="238.933" y="409.6" width="25.6" height="17.067"/>
	</g>
</g>
<g>
	<g>
		<path d="M221.867,59.733c-75.281,0-136.533,61.252-136.533,136.533S146.586,332.8,221.867,332.8S358.4,271.548,358.4,196.267
			S297.148,59.733,221.867,59.733z M221.867,315.733c-65.877,0-119.467-53.589-119.467-119.467S155.989,76.8,221.867,76.8
			s119.467,53.589,119.467,119.467S287.744,315.733,221.867,315.733z"/>
	</g>
</g>
<g>
	<g>
		<rect x="213.333" y="68.267" width="17.067" height="256"/>
	</g>
</g>
<g>
	<g>
		<rect x="93.867" y="187.733" width="256" height="17.067"/>
	</g>
</g>
<g>
	<g>
		<path d="M186.829,80.623l-15.258-7.646c-38.639,77.201-38.639,169.378,0,246.571l15.258-7.629
			C150.588,239.505,150.588,153.037,186.829,80.623z"/>
	</g>
</g>
<g>
	<g>
		<path d="M272.171,72.969l-15.266,7.646c36.241,72.414,36.241,158.882,0,231.296l15.266,7.637
			C310.801,242.355,310.801,150.178,272.171,72.969z"/>
	</g>
</g>
<g>
	<g>
		<rect x="119.467" y="110.933" width="204.8" height="17.067"/>
	</g>
</g>
<g>
	<g>
		<rect x="119.467" y="264.533" width="204.8" height="17.067"/>
	</g>
</g>
<g>
</g>
<g>
</g>
<g>
</g>
<g>
</g>
<g>
</g>
<g>
</g>
<g>
</g>
<g>
</g>
<g>
</g>
<g>
</g>
<g>
</g>
<g>
</g>
<g>
</g>
<g>
</g>
<g>
</g>
</svg>
