<?xml version="1.0" encoding="iso-8859-1"?>
<!-- Generator: Adobe Illustrator 19.0.0, SVG Export Plug-In . SVG Version: 6.00 Build 0)  -->
<svg version="1.1" id="Capa_1" xmlns="http://www.w3.org/2000/svg" xmlns:xlink="http://www.w3.org/1999/xlink" x="0px" y="0px"
	 viewBox="0 0 512.01 512.01" style="enable-background:new 0 0 512.01 512.01;" xml:space="preserve">
<g>
	<g>
		<path d="M508.601,1.722c-2.142-1.613-4.915-2.125-7.484-1.391L383.92,33.815L258.199,0.288c-1.451-0.384-2.961-0.384-4.395,0
			L134.337,32.117l4.395,16.495l117.274-31.241l125.798,33.544c1.502,0.393,3.046,0.375,4.54-0.043l108.595-31.019v443.051
			l-111.01,31.718l-125.722-33.527c-1.451-0.384-2.961-0.384-4.403,0l-125.722,33.527l-111.01-31.718V19.846l40.329,11.494
			l4.668-16.418l-51.2-14.592C8.309-0.395,5.535,0.117,3.393,1.73C1.26,3.343,0.006,5.869,0.006,8.54v460.8
			c0,3.806,2.526,7.159,6.187,8.209l119.467,34.133c1.493,0.427,3.063,0.435,4.548,0.034l125.798-33.545l125.798,33.545
			c0.725,0.188,1.459,0.29,2.202,0.29c0.794,0,1.579-0.111,2.338-0.324l119.467-34.133c3.669-1.05,6.195-4.403,6.195-8.209V8.54
			C512.006,5.86,510.751,3.343,508.601,1.722z"/>
	</g>
</g>
<g>
	<g>
		<path d="M245.604,165.34l-34.133-42.667c-1.519-1.894-3.772-3.055-6.195-3.191c-2.415-0.119-4.787,0.777-6.502,2.492
			l-23.834,23.834l-13.534-13.534l23.834-23.834c2.44-2.44,3.174-6.11,1.852-9.301c-1.323-3.183-4.437-5.265-7.885-5.265h-59.733
			v17.067h39.134l-15.3,15.3c-3.337,3.336-3.337,8.73,0,12.066l25.6,25.6c3.337,3.337,8.73,3.337,12.066,0l23.125-23.125
			l19.089,23.868l-11.255,1.877c-1.86,0.316-3.576,1.237-4.864,2.628l-48.666,52.719h-47.462c-4.71,0-8.533,3.823-8.533,8.533
			v22.067l-42.667-42.667v-64.734c0-2.261-0.896-4.437-2.5-6.033l-28.1-28.1h47.667V93.873H8.539c-3.447,0-6.562,2.082-7.885,5.265
			c-1.323,3.191-0.589,6.861,1.852,9.301l40.166,40.166v64.734c0,2.261,0.905,4.437,2.5,6.033l59.733,59.733
			c1.63,1.63,3.814,2.5,6.033,2.5c1.101,0,2.21-0.205,3.268-0.649c3.183-1.314,5.265-4.437,5.265-7.885V238.94h42.667
			c2.381,0,4.651-0.998,6.263-2.748l49.22-53.316l22.716-3.789c2.987-0.495,5.487-2.543,6.571-5.367
			C247.993,170.886,247.498,167.703,245.604,165.34z"/>
	</g>
</g>
<g>
	<g>
		<path d="M230.406,285.873h-26.334l-18.833-18.833c-1.596-1.604-3.772-2.5-6.033-2.5h-68.267c-4.71,0-8.533,3.814-8.533,8.533
			v59.733c0,2.68,1.263,5.214,3.413,6.827l30.72,23.04v46.933c0,2.594,1.178,5.043,3.2,6.664l42.667,34.133
			c1.544,1.237,3.43,1.869,5.333,1.869c1.263,0,2.517-0.273,3.695-0.845c2.961-1.425,4.838-4.403,4.838-7.689v-38.571l39.467-31.565
			c2.022-1.621,3.2-4.07,3.2-6.665v-72.533C238.939,289.688,235.116,285.873,230.406,285.873z M221.872,362.844l-39.467,31.565
			c-2.022,1.621-3.2,4.07-3.2,6.665v24.909l-25.6-20.471v-47.104c0-2.688-1.263-5.222-3.413-6.827l-30.72-23.04v-46.933h56.201
			l18.833,18.833c1.596,1.604,3.772,2.5,6.033,2.5h21.333V362.844z"/>
	</g>
</g>
<g>
	<g>
		<path d="M459.799,243.445c-1.485-2.773-4.378-4.506-7.526-4.506h-45.926l-23.236-46.481c-1.451-2.893-4.403-4.719-7.637-4.719
			h-68.267c-2.432,0-4.762,1.041-6.374,2.859l-34.133,38.4c-1.391,1.57-2.159,3.584-2.159,5.675v38.4
			c0,4.719,3.814,8.533,8.533,8.533h51.2v119.467c0,4.719,3.814,8.533,8.533,8.533h51.2c2.85,0,5.521-1.425,7.1-3.806l8.533-12.8
			l-14.2-9.463l-5.999,9.003h-38.101V273.073c0-4.719-3.814-8.533-8.533-8.533h-51.2v-26.624l29.431-33.109h59.162l23.236,46.481
			c1.451,2.893,4.403,4.719,7.637,4.719h35.26l-25.293,37.931l14.199,9.464l34.133-51.2
			C461.113,249.589,461.284,246.219,459.799,243.445z"/>
	</g>
</g>
<g>
	<g>
		<path d="M379.125,35.667L300.942,90.4l-8.346-12.518l12.117-12.117c2.014-2.014,2.884-4.907,2.33-7.706l-8.533-42.667
			l-16.734,3.354l7.629,38.187l-13.833,13.841c-2.876,2.876-3.328,7.39-1.067,10.769l17.067,25.6
			c1.271,1.911,3.26,3.226,5.521,3.652c0.529,0.094,1.05,0.145,1.579,0.145c1.741,0,3.447-0.529,4.898-1.553l85.333-59.733
			L379.125,35.667z"/>
	</g>
</g>
<g>
	<g>
		<path d="M358.406,128.006c2.534,0,4.932-1.126,6.562-3.072l40.107-48.128h98.398V59.74h-102.4c-2.534,0-4.932,1.126-6.562,3.072
			l-40.107,48.128h-21.598c-4.719,0-8.533,3.823-8.533,8.533v42.667c0,4.71,3.814,8.533,8.533,8.533h79.556l14.916,37.308
			c1.306,3.234,4.437,5.359,7.927,5.359h68.267v-17.067h-62.49l-14.916-37.308c-1.306-3.234-4.437-5.359-7.927-5.359h-76.8v-25.6
			H358.406z"/>
	</g>
</g>
<g>
	<g>
		<path d="M96.944,0.006c-10.752,0-21.154,3.157-30.08,9.114c-12.041,8.038-20.232,20.284-23.066,34.475
			c-2.825,14.191,0.043,28.638,8.073,40.67l37.973,57.003c1.579,2.381,4.25,3.806,7.1,3.806c2.85,0,5.521-1.425,7.1-3.806
			l37.973-56.994c5.965-8.934,9.114-19.337,9.114-30.08C151.131,24.318,126.82,0.006,96.944,0.006z M127.818,74.81l-30.874,46.345
			L66.071,74.801c-5.504-8.252-7.467-18.142-5.53-27.87c1.937-9.719,7.552-18.108,15.795-23.62
			c6.118-4.079,13.244-6.238,20.608-6.238c20.463,0,37.12,16.657,37.12,37.12C134.064,61.557,131.905,68.683,127.818,74.81z"/>
	</g>
</g>
<g>
	<g>
		<circle cx="96.944" cy="51.206" r="17.067"/>
	</g>
</g>
<g>
	<g>
		<path d="M423.6,290.14c-10.743,0-21.146,3.149-30.071,9.114c-12.041,8.03-20.233,20.275-23.066,34.475
			c-2.825,14.191,0.043,28.646,8.073,40.678l37.965,57.003c1.587,2.372,4.241,3.797,7.1,3.797c2.85,0,5.513-1.425,7.108-3.797
			l37.973-57.003c5.965-8.934,9.114-19.337,9.114-30.08C477.796,314.451,453.484,290.14,423.6,290.14z M454.465,364.943
			l-30.874,46.345l-30.865-46.345c-5.504-8.252-7.475-18.15-5.53-27.878c1.937-9.728,7.552-18.108,15.804-23.612
			c6.118-4.087,13.244-6.246,20.599-6.246c20.463,0,37.12,16.649,37.111,37.12C460.712,351.682,458.553,358.807,454.465,364.943z"/>
	</g>
</g>
<g>
	<g>
		<circle cx="423.6" cy="341.34" r="17.067"/>
	</g>
</g>
<g>
	<g>
		<path d="M468.452,431.375l-17.067-34.133l-15.266,7.637l13.013,26.044l-44.885,19.234l-7.774-11.648l25.489-12.74l-7.637-15.266
			l-34.133,17.067c-2.193,1.092-3.806,3.081-4.437,5.444c-0.623,2.372-0.205,4.898,1.152,6.929l17.067,25.6
			c1.621,2.432,4.318,3.797,7.1,3.797c1.135,0,2.278-0.222,3.371-0.708l59.733-25.6c2.167-0.922,3.849-2.697,4.659-4.907
			S469.501,433.474,468.452,431.375z"/>
	</g>
</g>
<g>
</g>
<g>
</g>
<g>
</g>
<g>
</g>
<g>
</g>
<g>
</g>
<g>
</g>
<g>
</g>
<g>
</g>
<g>
</g>
<g>
</g>
<g>
</g>
<g>
</g>
<g>
</g>
<g>
</g>
</svg>
