<?xml version="1.0" encoding="iso-8859-1"?>
<!-- Generator: Adobe Illustrator 19.0.0, SVG Export Plug-In . SVG Version: 6.00 Build 0)  -->
<svg version="1.1" id="Capa_1" xmlns="http://www.w3.org/2000/svg" xmlns:xlink="http://www.w3.org/1999/xlink" x="0px" y="0px"
	 viewBox="0 0 512 512" style="enable-background:new 0 0 512 512;" xml:space="preserve">
<g>
	<g>
		<rect x="119.467" y="290.134" width="273.067" height="17.067"/>
	</g>
</g>
<g>
	<g>
		<path d="M481.271,228.139l-59.614-5.965l-50.935-43.87c-5.82-4.898-13.218-7.62-20.855-7.637H115.806c-0.017,0-0.034,0-0.051,0
			c-11.255,0-21.692,5.606-27.878,14.976l-24.175,36.224H34.133C15.309,221.867,0,237.176,0,256v42.667
			c0,4.719,3.823,8.533,8.533,8.533h51.2v-17.067H17.067V256c0-9.412,7.654-17.067,17.067-17.067h34.133
			c2.85,0,5.513-1.425,7.091-3.797l26.735-40.055c3.046-4.599,8.149-7.347,13.679-7.347c0.009,0,0.017,0,0.026,0h234.044
			c3.601,0.009,7.125,1.297,9.813,3.567l52.907,45.568c1.331,1.135,2.978,1.843,4.719,2.022l62.293,6.229
			c8.798,0.879,15.403,8.218,15.36,17.109v27.904H460.8V307.2h42.667c4.719,0,8.533-3.814,8.533-8.533v-36.395
			C512.085,244.583,498.876,229.914,481.271,228.139z"/>
	</g>
</g>
<g>
	<g>
		<path d="M93.867,256C70.34,256,51.2,275.14,51.2,298.667c0,23.526,19.14,42.667,42.667,42.667
			c23.526,0,42.667-19.14,42.667-42.667C136.533,275.14,117.393,256,93.867,256z M93.867,324.267c-14.114,0-25.6-11.486-25.6-25.6
			s11.486-25.6,25.6-25.6s25.6,11.486,25.6,25.6S107.981,324.267,93.867,324.267z"/>
	</g>
</g>
<g>
	<g>
		<path d="M426.667,256C403.14,256,384,275.14,384,298.667c0,23.526,19.14,42.667,42.667,42.667s42.667-19.14,42.667-42.667
			C469.333,275.14,450.193,256,426.667,256z M426.667,324.267c-14.114,0-25.6-11.486-25.6-25.6s11.486-25.6,25.6-25.6
			s25.6,11.486,25.6,25.6S440.781,324.267,426.667,324.267z"/>
	</g>
</g>
<g>
	<g>
		<rect x="68.267" y="221.867" width="349.867" height="17.067"/>
	</g>
</g>
<g>
	<g>
		<rect x="221.867" y="179.2" width="17.067" height="51.2"/>
	</g>
</g>
<g>
	<g>
		<rect x="315.733" y="179.2" width="17.067" height="51.2"/>
	</g>
</g>
<g>
	<g>
		<rect x="128" y="179.2" width="17.067" height="51.2"/>
	</g>
</g>
<g>
	<g>
		<rect x="477.867" y="256" width="25.6" height="17.067"/>
	</g>
</g>
<g>
	<g>
		<path d="M34.133,230.4V256h-25.6v17.067h34.133c4.71,0,8.533-3.814,8.533-8.533V230.4H34.133z"/>
	</g>
</g>
<g>
</g>
<g>
</g>
<g>
</g>
<g>
</g>
<g>
</g>
<g>
</g>
<g>
</g>
<g>
</g>
<g>
</g>
<g>
</g>
<g>
</g>
<g>
</g>
<g>
</g>
<g>
</g>
<g>
</g>
</svg>
