<?xml version="1.0" encoding="iso-8859-1"?>
<!-- Generator: Adobe Illustrator 19.0.0, SVG Export Plug-In . SVG Version: 6.00 Build 0)  -->
<svg version="1.1" id="Capa_1" xmlns="http://www.w3.org/2000/svg" xmlns:xlink="http://www.w3.org/1999/xlink" x="0px" y="0px"
	 viewBox="0 0 512.003 512.003" style="enable-background:new 0 0 512.003 512.003;" xml:space="preserve">
<g>
	<g>
		<path d="M508.605,1.724c-2.142-1.613-4.915-2.125-7.484-1.391l-89.6,25.6l4.685,16.41l78.729-22.494v443.051l-111.01,31.718
			L258.203,461.09c-1.451-0.384-2.961-0.384-4.403,0l-125.722,33.527l-111.01-31.718V19.849l108.587,31.019
			c1.493,0.435,3.063,0.435,4.548,0.043l125.798-33.544l74.598,19.9l4.403-16.495l-76.8-20.48c-1.451-0.384-2.961-0.384-4.403,0
			L128.078,33.818L10.882,0.333C8.313-0.401,5.54,0.111,3.398,1.724c-2.142,1.613-3.396,4.13-3.396,6.81v460.8
			c0,3.806,2.526,7.159,6.187,8.209l119.467,34.133c1.493,0.427,3.063,0.435,4.548,0.034l125.798-33.545L381.8,511.71
			c0.725,0.188,1.459,0.29,2.202,0.29c0.794,0,1.579-0.111,2.338-0.324l119.467-34.133c3.669-1.05,6.195-4.403,6.195-8.209V8.533
			C512.002,5.854,510.747,3.337,508.605,1.724z"/>
	</g>
</g>
<g>
	<g>
		<path d="M107.863,256c-10.743,0-21.146,3.149-30.08,9.114c-12.032,8.03-20.224,20.275-23.057,34.466
			c-2.833,14.2,0.034,28.655,8.064,40.687l37.973,57.003c1.579,2.372,4.25,3.797,7.1,3.797c2.859,0,5.521-1.425,7.1-3.797
			l37.973-57.003c5.956-8.934,9.114-19.337,9.114-30.08C162.05,280.311,137.738,256,107.863,256z M138.737,330.803l-30.874,46.345
			l-30.874-46.345c-5.504-8.252-7.475-18.15-5.53-27.878c1.937-9.728,7.552-18.108,15.795-23.612
			c6.127-4.087,13.252-6.246,20.608-6.246c20.471,0,37.12,16.649,37.12,37.12C144.983,317.542,142.824,324.668,138.737,330.803z"/>
	</g>
</g>
<g>
	<g>
		<circle cx="107.863" cy="307.2" r="17.067"/>
	</g>
</g>
<g>
	<g>
		<path d="M375.468,0c-10.752,0-21.146,3.157-30.071,9.114c-24.849,16.589-31.582,50.295-15.002,75.145l37.973,57.003
			c1.587,2.381,4.25,3.806,7.1,3.806c2.85,0,5.521-1.425,7.108-3.806l37.973-56.994c5.965-8.934,9.114-19.337,9.114-30.08
			C429.655,24.311,405.344,0,375.468,0z M406.342,74.795l-30.874,46.345l-30.874-46.353c-11.358-17.024-6.75-40.115,10.274-51.482
			c6.118-4.079,13.235-6.238,20.599-6.238c20.471,0,37.12,16.657,37.12,37.112C412.588,61.534,410.429,68.659,406.342,74.795z"/>
	</g>
</g>
<g>
	<g>
		<circle cx="375.468" cy="51.2" r="17.067"/>
	</g>
</g>
<g>
	<g>
		<path d="M435.202,213.333h-25.6c-14.114,0-25.6-11.486-25.6-25.6v-25.6h-17.067v25.6c0,23.526,19.14,42.667,42.667,42.667h25.6
			c14.114,0,25.6,11.486,25.6,25.6s-11.486,25.6-25.6,25.6h-179.2c-23.526,0-42.667,19.14-42.667,42.667
			c0,23.526,19.14,42.667,42.667,42.667h85.333c14.114,0,25.6,11.486,25.6,25.6c0,14.114-11.486,25.6-25.6,25.6H102.402V435.2
			h238.933c23.526,0,42.667-19.14,42.667-42.667c0-23.526-19.14-42.667-42.667-42.667h-85.333c-14.114,0-25.6-11.486-25.6-25.6
			s11.486-25.6,25.6-25.6h179.2c23.526,0,42.667-19.14,42.667-42.667C477.868,232.474,458.728,213.333,435.202,213.333z"/>
	</g>
</g>
<g>
	<g>
		<path d="M458.301,147.567L441.235,130.5c-3.337-3.336-8.73-3.336-12.066,0l-17.067,17.067c-1.604,1.596-2.5,3.772-2.5,6.033v25.6
			c0,4.71,3.814,8.533,8.533,8.533h34.133c4.719,0,8.533-3.823,8.533-8.533v-25.6C460.802,151.339,459.906,149.163,458.301,147.567z
			 M443.735,170.667h-17.067v-13.534l8.533-8.533l8.533,8.533V170.667z"/>
	</g>
</g>
<g>
	<g>
		<path d="M315.291,125.303l-17.067-51.2c-1.152-3.49-4.412-5.837-8.09-5.837s-6.929,2.347-8.098,5.828l-17.067,51.2
			c-0.87,2.603-0.435,5.461,1.169,7.689c1.613,2.236,4.19,3.55,6.929,3.55h34.133c2.739,0,5.316-1.314,6.921-3.541
			S316.17,127.906,315.291,125.303z M284.913,119.467l5.222-15.684l5.231,15.684H284.913z"/>
	</g>
</g>
<g>
	<g>
		<rect x="281.602" y="128" width="17.067" height="25.6"/>
	</g>
</g>
<g>
	<g>
		<path d="M460.358,406.903l-17.067-51.2c-1.152-3.49-4.412-5.837-8.09-5.837s-6.929,2.347-8.098,5.837l-17.067,51.2
			c-0.87,2.594-0.435,5.461,1.169,7.689c1.613,2.227,4.19,3.541,6.929,3.541h34.133c2.739,0,5.316-1.314,6.921-3.541
			C460.793,412.373,461.237,409.506,460.358,406.903z M429.979,401.067l5.222-15.684l5.231,15.684H429.979z"/>
	</g>
</g>
<g>
	<g>
		<rect x="426.668" y="409.6" width="17.067" height="25.6"/>
	</g>
</g>
<g>
	<g>
		<path d="M143.362,148.48c-3.217-4.301-10.436-4.301-13.653,0l-25.6,34.133l13.653,10.24l18.773-25.028l18.773,25.028l13.653-10.24
			L143.362,148.48z"/>
	</g>
</g>
<g>
	<g>
		<path d="M100.695,131.413c-1.664-2.21-4.344-3.507-7.066-3.405c-2.765,0.077-5.325,1.493-6.861,3.797l-34.133,51.2l14.199,9.464
			l27.443-41.165l18.364,24.482l13.653-10.24L100.695,131.413z"/>
	</g>
</g>
<g>
	<g>
		<path d="M279.101,215.834l-17.067-17.067c-3.337-3.337-8.73-3.337-12.066,0l-17.067,17.067c-1.604,1.596-2.5,3.772-2.5,6.033v25.6
			c0,4.71,3.823,8.533,8.533,8.533h34.133c4.719,0,8.533-3.823,8.533-8.533v-25.6C281.602,219.605,280.706,217.429,279.101,215.834z
			 M264.535,238.933h-17.067v-13.534l8.533-8.533l8.533,8.533V238.933z"/>
	</g>
</g>
<g>
	<g>
		<path d="M247.033,125.303l-17.067-51.2c-1.161-3.49-4.42-5.837-8.098-5.837s-6.929,2.347-8.098,5.828l-17.067,51.2
			c-0.862,2.603-0.427,5.461,1.178,7.689c1.604,2.236,4.181,3.55,6.921,3.55h34.133c2.739,0,5.316-1.314,6.921-3.541
			S247.904,127.906,247.033,125.303z M216.637,119.467l5.231-15.684l5.231,15.684H216.637z"/>
	</g>
</g>
<g>
	<g>
		<rect x="213.335" y="128" width="17.067" height="25.6"/>
	</g>
</g>
<g>
</g>
<g>
</g>
<g>
</g>
<g>
</g>
<g>
</g>
<g>
</g>
<g>
</g>
<g>
</g>
<g>
</g>
<g>
</g>
<g>
</g>
<g>
</g>
<g>
</g>
<g>
</g>
<g>
</g>
</svg>
