<?xml version="1.0" encoding="iso-8859-1"?>
<!-- Generator: Adobe Illustrator 19.0.0, SVG Export Plug-In . SVG Version: 6.00 Build 0)  -->
<svg version="1.1" id="Capa_1" xmlns="http://www.w3.org/2000/svg" xmlns:xlink="http://www.w3.org/1999/xlink" x="0px" y="0px"
	 viewBox="0 0 512 512" style="enable-background:new 0 0 512 512;" xml:space="preserve">
<g>
	<g>
		<path d="M256,68.267c-122.334,0-221.867,99.533-221.867,221.867C34.133,412.476,133.666,512,256,512
			c122.342,0,221.867-99.524,221.867-221.867C477.867,167.799,378.342,68.267,256,68.267z M256,494.933
			c-112.922,0-204.8-91.878-204.8-204.8s91.878-204.8,204.8-204.8s204.8,91.878,204.8,204.8S368.922,494.933,256,494.933z"/>
	</g>
</g>
<g>
	<g>
		<path d="M256,110.933c-98.816,0-179.2,80.384-179.2,179.2c0,98.807,80.384,179.2,179.2,179.2c98.807,0,179.2-80.393,179.2-179.2
			C435.2,191.317,354.807,110.933,256,110.933z M256,452.267c-89.404,0-162.133-72.73-162.133-162.133S166.596,128,256,128
			s162.133,72.73,162.133,162.133S345.404,452.267,256,452.267z"/>
	</g>
</g>
<g>
	<g>
		<path d="M256,0c-23.526,0-42.667,19.14-42.667,42.667c0,23.526,19.14,42.667,42.667,42.667c23.526,0,42.667-19.14,42.667-42.667
			C298.667,19.14,279.526,0,256,0z M256,68.267c-14.114,0-25.6-11.486-25.6-25.6s11.486-25.6,25.6-25.6s25.6,11.486,25.6,25.6
			S270.114,68.267,256,68.267z"/>
	</g>
</g>
<g>
	<g>
		
			<rect x="247.459" y="253.914" transform="matrix(0.7071 -0.7071 0.7071 0.7071 -130.1652 265.9868)" width="17.067" height="72.405"/>
	</g>
</g>
<g>
	<g>
		<path d="M347.358,198.758c-2.68-2.671-6.793-3.26-10.078-1.476l-110.933,59.733c-1.468,0.794-2.671,1.997-3.465,3.473
			l-59.733,110.933c-1.792,3.319-1.195,7.407,1.476,10.078c1.647,1.638,3.831,2.5,6.042,2.5c1.382,0,2.773-0.333,4.036-1.024
			l110.933-59.733c1.476-0.794,2.68-1.997,3.473-3.473l59.733-110.933C350.626,205.517,350.029,201.421,347.358,198.758z
			 M275.302,309.436l-83.635,45.03l45.03-83.635l83.635-45.03L275.302,309.436z"/>
	</g>
</g>
<g>
	<g>
		<rect x="247.467" y="119.467" width="17.067" height="42.667"/>
	</g>
</g>
<g>
	<g>
		<rect x="247.467" y="418.133" width="17.067" height="42.667"/>
	</g>
</g>
<g>
	<g>
		<rect x="85.333" y="281.6" width="42.667" height="17.067"/>
	</g>
</g>
<g>
	<g>
		<rect x="384" y="281.6" width="42.667" height="17.067"/>
	</g>
</g>
<g>
	<g>
		
			<rect x="140.777" y="165.37" transform="matrix(0.7071 -0.7071 0.7071 0.7071 -86.0032 159.3161)" width="17.066" height="36.207"/>
	</g>
</g>
<g>
	<g>
		
			<rect x="354.133" y="378.709" transform="matrix(0.7071 -0.7071 0.7071 0.7071 -174.3663 372.6675)" width="17.067" height="36.207"/>
	</g>
</g>
<g>
	<g>
		
			<rect x="354.862" y="170.665" transform="matrix(0.7071 -0.7071 0.7071 0.7071 -19.2418 311.9427)" width="24.132" height="17.067"/>
	</g>
</g>
<g>
	<g>
		
			<rect x="133.038" y="392.533" transform="matrix(0.7071 -0.7071 0.7071 0.7071 -241.0969 220.0739)" width="24.132" height="17.067"/>
	</g>
</g>
<g>
</g>
<g>
</g>
<g>
</g>
<g>
</g>
<g>
</g>
<g>
</g>
<g>
</g>
<g>
</g>
<g>
</g>
<g>
</g>
<g>
</g>
<g>
</g>
<g>
</g>
<g>
</g>
<g>
</g>
</svg>
