<?xml version="1.0" encoding="iso-8859-1"?>
<!-- Generator: Adobe Illustrator 19.0.0, SVG Export Plug-In . SVG Version: 6.00 Build 0)  -->
<svg version="1.1" id="Capa_1" xmlns="http://www.w3.org/2000/svg" xmlns:xlink="http://www.w3.org/1999/xlink" x="0px" y="0px"
	 viewBox="0 0 511.996 511.996" style="enable-background:new 0 0 511.996 511.996;" xml:space="preserve">
<g>
	<g>
		<path d="M439.433,154.196H43.082C19.326,154.196,0,173.522,0,197.278v224.025c0,23.755,19.326,43.082,43.082,43.082h396.351
			c23.755,0,43.082-19.326,43.082-43.082V197.278C482.515,173.522,463.188,154.196,439.433,154.196z M465.282,421.311
			c0,14.251-11.598,25.849-25.849,25.849H43.082c-14.251,0-25.849-11.598-25.849-25.849V197.286
			c0-14.251,11.598-25.849,25.849-25.849h396.351c14.251,0,25.849,11.598,25.849,25.849V421.311z"/>
	</g>
</g>
<g>
	<g>
		<path d="M137.861,197.278H51.698c-4.756,0-8.616,3.86-8.616,8.616v68.931c0,4.765,3.86,8.616,8.616,8.616h86.163
			c4.756,0,8.616-3.852,8.616-8.616v-68.931C146.478,201.138,142.618,197.278,137.861,197.278z M129.245,266.208H60.314V214.51
			h68.931V266.208z"/>
	</g>
</g>
<g>
	<g>
		<rect x="51.698" y="231.752" width="25.849" height="17.233"/>
	</g>
</g>
<g>
	<g>
		<rect x="112.012" y="231.752" width="25.849" height="17.233"/>
	</g>
</g>
<g>
	<g>
		<path d="M387.735,317.906c-28.511,0-51.698,23.187-51.698,51.698s23.187,51.698,51.698,51.698
			c28.511,0,51.698-23.187,51.698-51.698S416.247,317.906,387.735,317.906z M387.735,404.07c-19.008,0-34.465-15.458-34.465-34.465
			c0-19.008,15.458-34.465,34.465-34.465s34.465,15.458,34.465,34.465C422.201,388.612,406.743,404.07,387.735,404.07z"/>
	</g>
</g>
<g>
	<g>
		<path d="M336.037,317.906c-28.511,0-51.698,23.187-51.698,51.698s23.187,51.698,51.698,51.698
			c28.511,0,51.698-23.187,51.698-51.698S364.549,317.906,336.037,317.906z M336.037,404.07c-19.008,0-34.465-15.458-34.465-34.465
			c0-19.008,15.458-34.465,34.465-34.465c19.008,0,34.465,15.458,34.465,34.465C370.503,388.612,355.045,404.07,336.037,404.07z"/>
	</g>
</g>
<g>
	<g>
		<rect x="43.082" y="335.139" width="51.698" height="17.233"/>
	</g>
</g>
<g>
	<g>
		<rect x="129.245" y="335.139" width="51.698" height="17.233"/>
	</g>
</g>
<g>
	<g>
		<rect x="215.408" y="335.139" width="51.698" height="17.233"/>
	</g>
</g>
<g>
	<g>
		<rect x="43.082" y="386.837" width="224.025" height="17.233"/>
	</g>
</g>
<g>
	<g>
		<path d="M475.691,110.977L84.328,48.163C60.883,44.381,38.748,60.459,35,83.904l-13.872,86.163l17.017,2.74l13.872-86.172
			c2.249-14.079,15.552-23.712,29.589-21.463l391.363,62.822c14.062,2.232,23.686,15.484,21.481,29.537
			c-0.009,0.052-0.017,0.112-0.026,0.164L465.377,342.42l17.035,2.68l29.02-184.657c0.009-0.052,0.017-0.103,0.026-0.155
			C515.188,136.826,499.144,114.707,475.691,110.977z"/>
	</g>
</g>
<g>
	<g>
		<rect x="310.188" y="205.903" width="17.233" height="34.465"/>
	</g>
</g>
<g>
	<g>
		<rect x="344.654" y="205.903" width="17.233" height="34.465"/>
	</g>
</g>
<g>
	<g>
		<rect x="379.119" y="205.903" width="17.233" height="34.465"/>
	</g>
</g>
<g>
	<g>
		<rect x="413.584" y="205.903" width="17.233" height="34.465"/>
	</g>
</g>
<g>
	<g>
		
			<rect x="478.209" y="173.36" transform="matrix(0.1677 -0.9858 0.9858 0.1677 221.3524 635.1268)" width="17.232" height="26.219"/>
	</g>
</g>
<g>
	<g>
		<rect x="185.261" y="-16.007" transform="matrix(0.169 -0.9856 0.9856 0.169 26.104 304.9166)" width="17.232" height="305.97"/>
	</g>
</g>
<g>
</g>
<g>
</g>
<g>
</g>
<g>
</g>
<g>
</g>
<g>
</g>
<g>
</g>
<g>
</g>
<g>
</g>
<g>
</g>
<g>
</g>
<g>
</g>
<g>
</g>
<g>
</g>
<g>
</g>
</svg>
